<mxfile host="app.diagrams.net" modified="2023-08-19T21:27:04.459Z" agent="Mozilla/5.0 (Windows NT 10.0; Win64; x64) AppleWebKit/537.36 (KHTML, like Gecko) Chrome/115.0.0.0 Safari/537.36" etag="NZ4Krw0eiXmQMsTlu3Xi" version="21.6.8" type="github">
  <diagram id="C5RBs43oDa-KdzZeNtuy" name="Page-1">
    <mxGraphModel dx="913" dy="529" grid="1" gridSize="10" guides="1" tooltips="1" connect="1" arrows="1" fold="1" page="1" pageScale="1" pageWidth="827" pageHeight="1169" math="0" shadow="0">
      <root>
        <mxCell id="WIyWlLk6GJQsqaUBKTNV-0" />
        <mxCell id="WIyWlLk6GJQsqaUBKTNV-1" parent="WIyWlLk6GJQsqaUBKTNV-0" />
        <mxCell id="u7MFILxvtb2_UKzGGUEj-13" style="edgeStyle=orthogonalEdgeStyle;rounded=0;orthogonalLoop=1;jettySize=auto;html=1;exitX=0.5;exitY=1;exitDx=0;exitDy=0;entryX=0.5;entryY=0;entryDx=0;entryDy=0;fillColor=#fff2cc;strokeColor=#d6b656;" edge="1" parent="WIyWlLk6GJQsqaUBKTNV-1" source="WIyWlLk6GJQsqaUBKTNV-3">
          <mxGeometry relative="1" as="geometry">
            <mxPoint x="360" y="80" as="targetPoint" />
          </mxGeometry>
        </mxCell>
        <mxCell id="WIyWlLk6GJQsqaUBKTNV-3" value="&lt;font style=&quot;vertical-align: inherit;&quot;&gt;&lt;font style=&quot;vertical-align: inherit;&quot;&gt;inicio&lt;/font&gt;&lt;/font&gt;" style="rounded=1;whiteSpace=wrap;html=1;fontSize=12;glass=0;strokeWidth=1;shadow=0;fillColor=#fff2cc;strokeColor=#d6b656;" parent="WIyWlLk6GJQsqaUBKTNV-1" vertex="1">
          <mxGeometry x="297.5" y="20" width="125" height="40" as="geometry" />
        </mxCell>
        <mxCell id="u7MFILxvtb2_UKzGGUEj-15" style="edgeStyle=orthogonalEdgeStyle;rounded=0;orthogonalLoop=1;jettySize=auto;html=1;exitX=0.5;exitY=1;exitDx=0;exitDy=0;entryX=0.5;entryY=0;entryDx=0;entryDy=0;fillColor=#fff2cc;strokeColor=#d6b656;" edge="1" parent="WIyWlLk6GJQsqaUBKTNV-1" source="u7MFILxvtb2_UKzGGUEj-3" target="u7MFILxvtb2_UKzGGUEj-5">
          <mxGeometry relative="1" as="geometry" />
        </mxCell>
        <mxCell id="u7MFILxvtb2_UKzGGUEj-3" value="8 , 2" style="shape=parallelogram;perimeter=parallelogramPerimeter;whiteSpace=wrap;html=1;fixedSize=1;fillColor=#fff2cc;strokeColor=#d6b656;" vertex="1" parent="WIyWlLk6GJQsqaUBKTNV-1">
          <mxGeometry x="240" y="150" width="240" height="40" as="geometry" />
        </mxCell>
        <mxCell id="u7MFILxvtb2_UKzGGUEj-16" style="edgeStyle=orthogonalEdgeStyle;rounded=0;orthogonalLoop=1;jettySize=auto;html=1;exitX=0.5;exitY=1;exitDx=0;exitDy=0;entryX=0.5;entryY=0;entryDx=0;entryDy=0;fillColor=#fff2cc;strokeColor=#d6b656;" edge="1" parent="WIyWlLk6GJQsqaUBKTNV-1" source="u7MFILxvtb2_UKzGGUEj-5" target="u7MFILxvtb2_UKzGGUEj-11">
          <mxGeometry relative="1" as="geometry" />
        </mxCell>
        <mxCell id="u7MFILxvtb2_UKzGGUEj-5" value="&lt;font style=&quot;vertical-align: inherit;&quot;&gt;&lt;font style=&quot;vertical-align: inherit;&quot;&gt;suma =&amp;nbsp; 8 + 2&lt;/font&gt;&lt;/font&gt;" style="html=1;dashed=0;whiteSpace=wrap;fillColor=#fff2cc;strokeColor=#d6b656;" vertex="1" parent="WIyWlLk6GJQsqaUBKTNV-1">
          <mxGeometry x="200" y="210" width="320" height="40" as="geometry" />
        </mxCell>
        <mxCell id="u7MFILxvtb2_UKzGGUEj-17" style="edgeStyle=orthogonalEdgeStyle;rounded=0;orthogonalLoop=1;jettySize=auto;html=1;exitX=0.5;exitY=1;exitDx=0;exitDy=0;entryX=0.5;entryY=0;entryDx=0;entryDy=0;fillColor=#fff2cc;strokeColor=#d6b656;" edge="1" parent="WIyWlLk6GJQsqaUBKTNV-1" source="u7MFILxvtb2_UKzGGUEj-11" target="u7MFILxvtb2_UKzGGUEj-12">
          <mxGeometry relative="1" as="geometry" />
        </mxCell>
        <mxCell id="u7MFILxvtb2_UKzGGUEj-11" value="&lt;font style=&quot;vertical-align: inherit;&quot;&gt;&lt;font style=&quot;vertical-align: inherit;&quot;&gt;resta =&amp;nbsp; 8 - 2&amp;nbsp;&amp;nbsp;&lt;/font&gt;&lt;/font&gt;" style="html=1;dashed=0;whiteSpace=wrap;fillColor=#fff2cc;strokeColor=#d6b656;" vertex="1" parent="WIyWlLk6GJQsqaUBKTNV-1">
          <mxGeometry x="200" y="270" width="320" height="40" as="geometry" />
        </mxCell>
        <mxCell id="u7MFILxvtb2_UKzGGUEj-22" style="edgeStyle=orthogonalEdgeStyle;rounded=0;orthogonalLoop=1;jettySize=auto;html=1;exitX=0.5;exitY=1;exitDx=0;exitDy=0;entryX=0.5;entryY=0;entryDx=0;entryDy=0;fillColor=#fff2cc;strokeColor=#d6b656;" edge="1" parent="WIyWlLk6GJQsqaUBKTNV-1" source="u7MFILxvtb2_UKzGGUEj-12" target="u7MFILxvtb2_UKzGGUEj-20">
          <mxGeometry relative="1" as="geometry" />
        </mxCell>
        <mxCell id="u7MFILxvtb2_UKzGGUEj-12" value="&lt;font style=&quot;vertical-align: inherit;&quot;&gt;&lt;font style=&quot;vertical-align: inherit;&quot;&gt;multiplicacion =&amp;nbsp; 8 * 2&amp;nbsp;&lt;/font&gt;&lt;/font&gt;" style="html=1;dashed=0;whiteSpace=wrap;fillColor=#fff2cc;strokeColor=#d6b656;" vertex="1" parent="WIyWlLk6GJQsqaUBKTNV-1">
          <mxGeometry x="200" y="330" width="320" height="40" as="geometry" />
        </mxCell>
        <mxCell id="u7MFILxvtb2_UKzGGUEj-19" style="edgeStyle=orthogonalEdgeStyle;rounded=0;orthogonalLoop=1;jettySize=auto;html=1;exitX=0.5;exitY=1;exitDx=0;exitDy=0;entryX=0.5;entryY=0;entryDx=0;entryDy=0;fillColor=#fff2cc;strokeColor=#d6b656;" edge="1" parent="WIyWlLk6GJQsqaUBKTNV-1" source="u7MFILxvtb2_UKzGGUEj-18" target="u7MFILxvtb2_UKzGGUEj-3">
          <mxGeometry relative="1" as="geometry" />
        </mxCell>
        <mxCell id="u7MFILxvtb2_UKzGGUEj-18" value="&lt;font style=&quot;vertical-align: inherit;&quot;&gt;&lt;font style=&quot;vertical-align: inherit;&quot;&gt;8,&amp;nbsp; 2 , suma, resta, multiplicaciones, diviciones&lt;/font&gt;&lt;/font&gt;" style="rounded=0;whiteSpace=wrap;html=1;fillColor=#fff2cc;strokeColor=#d6b656;" vertex="1" parent="WIyWlLk6GJQsqaUBKTNV-1">
          <mxGeometry x="120" y="80" width="490" height="50" as="geometry" />
        </mxCell>
        <mxCell id="u7MFILxvtb2_UKzGGUEj-24" value="verdadero" style="edgeStyle=orthogonalEdgeStyle;rounded=0;orthogonalLoop=1;jettySize=auto;html=1;exitX=1;exitY=0.5;exitDx=0;exitDy=0;entryX=0.5;entryY=0;entryDx=0;entryDy=0;entryPerimeter=0;fillColor=#fff2cc;strokeColor=#d6b656;" edge="1" parent="WIyWlLk6GJQsqaUBKTNV-1" source="u7MFILxvtb2_UKzGGUEj-20" target="u7MFILxvtb2_UKzGGUEj-23">
          <mxGeometry x="-0.4" y="10" relative="1" as="geometry">
            <mxPoint x="570" y="430" as="targetPoint" />
            <mxPoint as="offset" />
          </mxGeometry>
        </mxCell>
        <mxCell id="u7MFILxvtb2_UKzGGUEj-28" value="falso" style="edgeStyle=orthogonalEdgeStyle;rounded=0;orthogonalLoop=1;jettySize=auto;html=1;exitX=0;exitY=0.5;exitDx=0;exitDy=0;fillColor=#fff2cc;strokeColor=#d6b656;" edge="1" parent="WIyWlLk6GJQsqaUBKTNV-1" source="u7MFILxvtb2_UKzGGUEj-20">
          <mxGeometry x="-0.0291" y="-10" relative="1" as="geometry">
            <mxPoint x="170" y="490" as="targetPoint" />
            <Array as="points">
              <mxPoint x="170" y="430" />
            </Array>
            <mxPoint as="offset" />
          </mxGeometry>
        </mxCell>
        <mxCell id="u7MFILxvtb2_UKzGGUEj-20" value="&lt;font style=&quot;vertical-align: inherit;&quot;&gt;&lt;font style=&quot;vertical-align: inherit;&quot;&gt;numero2 = =0&lt;/font&gt;&lt;/font&gt;" style="rhombus;whiteSpace=wrap;html=1;fillColor=#fff2cc;strokeColor=#d6b656;" vertex="1" parent="WIyWlLk6GJQsqaUBKTNV-1">
          <mxGeometry x="255" y="400" width="210" height="60" as="geometry" />
        </mxCell>
        <mxCell id="u7MFILxvtb2_UKzGGUEj-23" value="&quot; la suma es :&quot; 10&amp;nbsp; &amp;nbsp; &amp;nbsp; &amp;nbsp; &amp;nbsp; &amp;nbsp; &amp;nbsp;&quot;&amp;nbsp; la resta es : &quot; 6&amp;nbsp; &amp;nbsp; &amp;nbsp; &amp;nbsp; &quot;&amp;nbsp; la multiplicación es : &quot; 16&amp;nbsp; &amp;nbsp; &amp;nbsp; &amp;nbsp; &quot; división no se puede dividir entre cero&quot;&amp;nbsp; &amp;nbsp; &amp;nbsp; &amp;nbsp; &amp;nbsp; &amp;nbsp; &amp;nbsp; &amp;nbsp; &amp;nbsp; &amp;nbsp; &amp;nbsp; &amp;nbsp; &amp;nbsp;&quot;&amp;nbsp;" style="strokeWidth=2;html=1;shape=mxgraph.flowchart.document2;whiteSpace=wrap;size=0.2571428571428571;fillColor=#fff2cc;strokeColor=#d6b656;" vertex="1" parent="WIyWlLk6GJQsqaUBKTNV-1">
          <mxGeometry x="490" y="490" width="305" height="80" as="geometry" />
        </mxCell>
        <mxCell id="u7MFILxvtb2_UKzGGUEj-27" value="&quot; la suma es :&quot; 10&amp;nbsp; &amp;nbsp; &amp;nbsp; &amp;nbsp; &amp;nbsp; &amp;nbsp; &amp;nbsp; &quot;&amp;nbsp; la resta es : &quot; 6&amp;nbsp; &amp;nbsp; &amp;nbsp; &amp;nbsp;&quot;&amp;nbsp; la multiplicación es : &quot; 16&amp;nbsp; &amp;nbsp; &amp;nbsp; &amp;nbsp; &quot;&amp;nbsp; la división es : &quot; 4&amp;nbsp;" style="strokeWidth=2;html=1;shape=mxgraph.flowchart.document2;whiteSpace=wrap;size=0.25;fillColor=#fff2cc;strokeColor=#d6b656;" vertex="1" parent="WIyWlLk6GJQsqaUBKTNV-1">
          <mxGeometry x="17.5" y="560" width="300" height="80" as="geometry" />
        </mxCell>
        <mxCell id="u7MFILxvtb2_UKzGGUEj-38" style="edgeStyle=orthogonalEdgeStyle;rounded=0;orthogonalLoop=1;jettySize=auto;html=1;fillColor=#fff2cc;strokeColor=#d6b656;" edge="1" parent="WIyWlLk6GJQsqaUBKTNV-1" source="u7MFILxvtb2_UKzGGUEj-29">
          <mxGeometry relative="1" as="geometry">
            <mxPoint x="167.5" y="560" as="targetPoint" />
          </mxGeometry>
        </mxCell>
        <mxCell id="u7MFILxvtb2_UKzGGUEj-29" value="división = 8 / 2" style="rounded=0;whiteSpace=wrap;html=1;fillColor=#fff2cc;strokeColor=#d6b656;" vertex="1" parent="WIyWlLk6GJQsqaUBKTNV-1">
          <mxGeometry x="37.5" y="490" width="260" height="40" as="geometry" />
        </mxCell>
        <mxCell id="u7MFILxvtb2_UKzGGUEj-39" value="fin" style="rounded=1;whiteSpace=wrap;html=1;fillColor=#fff2cc;strokeColor=#d6b656;" vertex="1" parent="WIyWlLk6GJQsqaUBKTNV-1">
          <mxGeometry x="300" y="710" width="150" height="50" as="geometry" />
        </mxCell>
        <mxCell id="u7MFILxvtb2_UKzGGUEj-42" value="" style="endArrow=classic;html=1;rounded=0;entryX=0;entryY=0.6;entryDx=0;entryDy=0;exitX=0.475;exitY=0.875;exitDx=0;exitDy=0;exitPerimeter=0;entryPerimeter=0;fillColor=#fff2cc;strokeColor=#d6b656;" edge="1" parent="WIyWlLk6GJQsqaUBKTNV-1" source="u7MFILxvtb2_UKzGGUEj-27" target="u7MFILxvtb2_UKzGGUEj-39">
          <mxGeometry width="50" height="50" relative="1" as="geometry">
            <mxPoint x="180" y="680" as="sourcePoint" />
            <mxPoint x="290" y="740" as="targetPoint" />
            <Array as="points">
              <mxPoint x="160" y="740" />
            </Array>
          </mxGeometry>
        </mxCell>
        <mxCell id="u7MFILxvtb2_UKzGGUEj-46" value="" style="endArrow=classic;html=1;rounded=0;exitX=0.495;exitY=0.888;exitDx=0;exitDy=0;exitPerimeter=0;entryX=1;entryY=0.5;entryDx=0;entryDy=0;fillColor=#fff2cc;strokeColor=#d6b656;" edge="1" parent="WIyWlLk6GJQsqaUBKTNV-1" source="u7MFILxvtb2_UKzGGUEj-23" target="u7MFILxvtb2_UKzGGUEj-39">
          <mxGeometry width="50" height="50" relative="1" as="geometry">
            <mxPoint x="390" y="730" as="sourcePoint" />
            <mxPoint x="440" y="680" as="targetPoint" />
            <Array as="points">
              <mxPoint x="640" y="740" />
            </Array>
          </mxGeometry>
        </mxCell>
      </root>
    </mxGraphModel>
  </diagram>
</mxfile>
